<svg width="150" height="22" viewBox="0 0 150 22" fill="none" xmlns="http://www.w3.org/2000/svg" data-v-c6bfffd5="">
    <g clip-path="url(#clip0_3507_9203)">
        <path
            d="M62.6125 16.7421V15.7946C62.1589 16.2664 61.6137 16.638 61.0112 16.8862C60.4088 17.1343 59.7621 17.2536 59.1119 17.2365C58.4301 17.2631 57.7503 17.1448 57.1164 16.8893C56.4826 16.6338 55.9086 16.2467 55.4315 15.753C54.9545 15.2593 54.5849 14.6699 54.3466 14.0229C54.1083 13.3758 54.0066 12.6853 54.0481 11.9961V5.18182C54.0501 5.10162 54.0825 5.02528 54.1386 4.96855C54.1946 4.91183 54.2701 4.87904 54.3493 4.87695H56.1729C56.2522 4.87904 56.3276 4.91183 56.3836 4.96855C56.4397 5.02528 56.4721 5.10162 56.4741 5.18182V11.8313C56.4368 12.2537 56.4888 12.6794 56.6269 13.0799C56.7649 13.4804 56.9858 13.8465 57.2747 14.1537C57.5637 14.4609 57.914 14.7023 58.3024 14.8616C58.6908 15.021 59.1083 15.0946 59.5271 15.0777C59.9535 15.0955 60.3789 15.0214 60.7749 14.8602C61.1709 14.6991 61.5285 14.4546 61.8241 14.1429C62.1197 13.8313 62.3465 13.4596 62.4894 13.0526C62.6324 12.6455 62.6882 12.2124 62.6532 11.7818V5.19006C62.6532 5.10921 62.685 5.03166 62.7415 4.97449C62.798 4.91731 62.8746 4.88519 62.9545 4.88519H64.7292C64.8091 4.88519 64.8857 4.91731 64.9422 4.97449C64.9987 5.03166 65.0304 5.10921 65.0304 5.19006V16.7256C65.0316 16.766 65.0245 16.8061 65.0098 16.8436C64.9951 16.8811 64.9729 16.9152 64.9447 16.9437C64.9165 16.9723 64.8829 16.9947 64.8458 17.0096C64.8088 17.0245 64.7691 17.0316 64.7292 17.0305H62.9138C62.8753 17.0316 62.8369 17.025 62.801 17.0111C62.765 16.9972 62.7321 16.9763 62.7041 16.9495C62.6761 16.9227 62.6536 16.8906 62.6379 16.855C62.6222 16.8194 62.6136 16.7811 62.6125 16.7421Z"
            fill="#BBBCBC"></path>
        <path
            d="M77.4304 16.7437V15.483C76.921 16.047 76.299 16.4951 75.6057 16.7977C74.9124 17.1003 74.1635 17.2504 73.4086 17.2381C71.7544 17.2426 70.165 16.5868 68.9854 15.4129C67.8058 14.2391 67.131 12.6418 67.1074 10.9677C67.1289 9.29206 67.8027 7.69271 68.9826 6.51708C70.1624 5.34145 71.753 4.68452 73.4086 4.689C74.1635 4.67671 74.9124 4.8268 75.6057 5.12936C76.299 5.43191 76.921 5.88003 77.4304 6.44406V0.519713C77.4304 0.438856 77.4621 0.361312 77.5186 0.304138C77.5751 0.246964 77.6517 0.214844 77.7316 0.214844H79.5063C79.5819 0.221066 79.6524 0.255913 79.7037 0.312427C79.755 0.368941 79.7834 0.442962 79.7831 0.519713V16.7437C79.7843 16.784 79.7772 16.8242 79.7625 16.8617C79.7478 16.8992 79.7256 16.9332 79.6974 16.9618C79.6692 16.9903 79.6356 17.0127 79.5985 17.0277C79.5614 17.0426 79.5218 17.0497 79.4819 17.0486H77.7316C77.6917 17.0497 77.652 17.0426 77.615 17.0277C77.5779 17.0127 77.5443 16.9903 77.5161 16.9618C77.4879 16.9332 77.4657 16.8992 77.451 16.8617C77.4363 16.8242 77.4292 16.784 77.4304 16.7437ZM73.4575 6.85604C72.9274 6.85588 72.4027 6.96307 71.9142 7.1713C71.4257 7.37953 70.9834 7.68458 70.6131 8.0685C70.2429 8.45242 69.9523 8.90743 69.7585 9.40675C69.5647 9.90607 69.4716 10.4396 69.4846 10.9759C69.4846 12.0423 69.9032 13.0651 70.6483 13.8191C71.3933 14.5732 72.4038 14.9969 73.4575 14.9969C74.5112 14.9969 75.5217 14.5732 76.2667 13.8191C77.0118 13.0651 77.4304 12.0423 77.4304 10.9759C77.4434 10.4396 77.3503 9.90607 77.1564 9.40675C76.9626 8.90743 76.6721 8.45242 76.3018 8.0685C75.9316 7.68458 75.4892 7.37953 75.0007 7.1713C74.5123 6.96307 73.9875 6.85588 73.4575 6.85604Z"
            fill="#BBBCBC"></path>
        <path
            d="M84.276 3.03273C83.8713 3.03724 83.4809 2.88102 83.1887 2.59758C82.8965 2.31414 82.7256 1.92607 82.7129 1.51662C82.7413 1.11997 82.917 0.748913 83.2048 0.478059C83.4925 0.207205 83.8708 0.0566406 84.2638 0.0566406C84.6567 0.0566406 85.0351 0.207205 85.3228 0.478059C85.6105 0.748913 85.7862 1.11997 85.8147 1.51662C85.804 1.92246 85.6373 2.30807 85.3498 2.59127C85.0624 2.87446 84.6771 3.03287 84.276 3.03273ZM83.0385 16.7436V5.20801C83.0385 5.12715 83.0703 5.04961 83.1268 4.99243C83.1832 4.93526 83.2599 4.90314 83.3398 4.90314H85.1471C85.2263 4.90522 85.3018 4.93801 85.3578 4.99474C85.4139 5.05147 85.4462 5.12781 85.4483 5.20801V16.7436C85.4483 16.8244 85.4166 16.902 85.3601 16.9592C85.3036 17.0163 85.227 17.0485 85.1471 17.0485H83.3642C83.3224 17.0532 83.28 17.0488 83.24 17.0355C83.2 17.0222 83.1633 17.0004 83.1324 16.9714C83.1015 16.9425 83.0772 16.9072 83.061 16.8679C83.0447 16.8286 83.0371 16.7862 83.0385 16.7436Z"
            fill="#BBBCBC"></path>
        <path
            d="M94.2824 17.2382C93.4478 17.2601 92.6171 17.1152 91.8378 16.8118C91.0586 16.5084 90.3461 16.0525 89.7411 15.47C89.1362 14.8876 88.6507 14.1902 88.3124 13.4176C87.9741 12.6451 87.7896 11.8126 87.7695 10.9678C87.9398 9.34959 88.6955 7.85234 89.8912 6.76427C91.0868 5.6762 92.6379 5.07422 94.2458 5.07422C95.8537 5.07422 97.4047 5.6762 98.6004 6.76427C99.796 7.85234 100.552 9.34959 100.722 10.9678C100.684 12.6616 99.985 14.2713 98.7787 15.4459C97.5724 16.6205 95.9562 17.2648 94.2824 17.2382ZM94.2824 6.85619C93.4773 6.85619 92.6903 7.09782 92.0209 7.55051C91.3515 8.00321 90.8298 8.64664 90.5217 9.39944C90.2136 10.1522 90.133 10.9806 90.2901 11.7798C90.4471 12.579 90.8348 13.313 91.4041 13.8892C91.9734 14.4654 92.6987 14.8578 93.4883 15.0167C94.2779 15.1757 95.0964 15.0941 95.8402 14.7823C96.584 14.4705 97.2197 13.9424 97.667 13.2649C98.1142 12.5874 98.353 11.7909 98.353 10.976C98.353 9.88339 97.9241 8.83549 97.1607 8.06287C96.3974 7.29025 95.362 6.85619 94.2824 6.85619Z"
            fill="#BBBCBC"></path>
        <path
            d="M103.092 16.7437V0.519713C103.094 0.439514 103.126 0.363174 103.182 0.306445C103.238 0.249717 103.314 0.216928 103.393 0.214844H105.2C105.28 0.214844 105.357 0.246964 105.413 0.304138C105.47 0.361312 105.502 0.438856 105.502 0.519713V16.7437C105.503 16.784 105.496 16.8242 105.481 16.8617C105.466 16.8992 105.444 16.9332 105.416 16.9618C105.388 16.9903 105.354 17.0127 105.317 17.0277C105.28 17.0426 105.24 17.0497 105.2 17.0486H103.393C103.313 17.0486 103.237 17.0164 103.18 16.9593C103.124 16.9021 103.092 16.8245 103.092 16.7437Z"
            fill="#BBBCBC"></path>
        <path
            d="M114.318 17.2382C113.483 17.2601 112.652 17.1152 111.873 16.8118C111.094 16.5084 110.381 16.0525 109.776 15.47C109.171 14.8876 108.686 14.1902 108.348 13.4176C108.009 12.6451 107.825 11.8126 107.805 10.9678C107.975 9.34959 108.731 7.85234 109.926 6.76427C111.122 5.6762 112.673 5.07422 114.281 5.07422C115.889 5.07422 117.44 5.6762 118.636 6.76427C119.831 7.85234 120.587 9.34959 120.757 10.9678C120.719 12.6616 120.02 14.2713 118.814 15.4459C117.608 16.6205 115.991 17.2648 114.318 17.2382ZM114.318 6.85619C113.512 6.85619 112.726 7.09782 112.056 7.55051C111.387 8.00321 110.865 8.64664 110.557 9.39944C110.249 10.1522 110.168 10.9806 110.325 11.7798C110.482 12.579 110.87 13.313 111.439 13.8892C112.009 14.4654 112.734 14.8578 113.523 15.0167C114.313 15.1757 115.132 15.0941 115.875 14.7823C116.619 14.4705 117.255 13.9424 117.702 13.2649C118.149 12.5874 118.388 11.7909 118.388 10.976C118.388 9.88339 117.959 8.83549 117.196 8.06287C116.433 7.29025 115.397 6.85619 114.318 6.85619Z"
            fill="#BBBCBC"></path>
        <path
            d="M128.776 21.9999C127.821 22.0176 126.875 21.8205 126.005 21.423C125.135 21.0254 124.363 20.4373 123.745 19.701C123.717 19.6693 123.697 19.6321 123.685 19.592C123.672 19.5518 123.668 19.5095 123.673 19.4678C123.677 19.426 123.691 19.3856 123.711 19.3492C123.732 19.3127 123.76 19.2811 123.793 19.2561L125.072 18.2756C125.133 18.2311 125.208 18.2108 125.283 18.2184C125.358 18.2259 125.427 18.2609 125.479 18.3168C125.889 18.8073 126.402 19.1987 126.981 19.4625C127.56 19.7262 128.19 19.8556 128.825 19.8411C131.153 19.8411 132.895 18.1932 132.895 15.4823C132.398 16.0597 131.78 16.5171 131.085 16.8208C130.391 17.1246 129.638 17.2669 128.882 17.2374C127.227 17.2419 125.636 16.5864 124.455 15.4127C123.275 14.2391 122.598 12.6419 122.572 10.967C122.596 9.29062 123.271 7.69128 124.453 6.51587C125.634 5.34047 127.225 4.6838 128.882 4.68831C129.635 4.67507 130.383 4.82478 131.076 5.12743C131.768 5.43008 132.388 5.87871 132.895 6.44336V5.18269C132.897 5.10249 132.93 5.02615 132.986 4.96942C133.042 4.91269 133.117 4.8799 133.196 4.87782H134.979C135.059 4.8799 135.134 4.91269 135.19 4.96942C135.246 5.02615 135.278 5.10249 135.281 5.18269V15.6553C135.28 16.5087 135.11 17.3532 134.78 18.1384C134.449 18.9236 133.966 19.6335 133.359 20.2257C132.752 20.8178 132.033 21.2801 131.246 21.5849C130.458 21.8898 129.618 22.0309 128.776 21.9999ZM128.93 6.85535C128.4 6.85405 127.875 6.96047 127.386 7.16831C126.897 7.37614 126.454 7.68116 126.084 8.06531C125.713 8.44946 125.423 8.90493 125.229 9.40475C125.036 9.90458 124.943 10.4386 124.958 10.9752C124.933 11.518 125.018 12.0602 125.206 12.5689C125.395 13.0777 125.683 13.5425 126.054 13.9353C126.425 14.3282 126.871 14.6408 127.365 14.8544C127.858 15.068 128.39 15.1781 128.926 15.1781C129.463 15.1781 129.995 15.068 130.488 14.8544C130.982 14.6408 131.428 14.3282 131.799 13.9353C132.169 13.5425 132.458 13.0777 132.646 12.5689C132.835 12.0602 132.919 11.518 132.895 10.9752C132.909 10.4393 132.817 9.90595 132.624 9.40668C132.431 8.9074 132.142 8.4523 131.772 8.06827C131.402 7.68423 130.961 7.37904 130.473 7.17071C129.985 6.96239 129.46 6.85516 128.93 6.85535Z"
            fill="#BBBCBC"></path>
        <path
            d="M141.191 21.9084H139.425C139.373 21.9086 139.322 21.8953 139.277 21.8697C139.231 21.8442 139.193 21.8072 139.166 21.7625C139.139 21.7178 139.124 21.6668 139.122 21.6144C139.121 21.562 139.132 21.51 139.156 21.4635L142.249 15.3167L137.145 5.3219C137.121 5.27534 137.11 5.22336 137.112 5.17098C137.113 5.11859 137.129 5.06758 137.156 5.02285C137.183 4.97812 137.22 4.9412 137.266 4.91564C137.311 4.89009 137.362 4.87676 137.414 4.87696H139.213C139.325 4.87731 139.434 4.9091 139.529 4.96875C139.624 5.02841 139.7 5.11359 139.75 5.21478L143.601 12.8612L147.354 5.21478C147.404 5.11359 147.48 5.02841 147.575 4.96875C147.67 4.9091 147.78 4.87731 147.891 4.87696H149.682C149.734 4.87676 149.785 4.89009 149.83 4.91564C149.876 4.9412 149.913 4.97812 149.94 5.02285C149.967 5.06758 149.983 5.11859 149.984 5.17098C149.986 5.22336 149.975 5.27534 149.951 5.3219L141.728 21.5706C141.679 21.6718 141.602 21.757 141.507 21.8166C141.412 21.8763 141.303 21.9081 141.191 21.9084Z"
            fill="#BBBCBC"></path>
        <path
            d="M12.0807 1.08803C11.7633 1.08543 11.4529 1.18222 11.1921 1.36514C10.9312 1.54805 10.7326 1.80813 10.6234 2.10975L6.69941 13.4393L2.78353 1.76368C2.73772 1.62527 2.65032 1.50479 2.53355 1.41911C2.41678 1.33342 2.27647 1.28681 2.13225 1.28578H0.390047C0.32715 1.28599 0.265273 1.30189 0.209893 1.33207C0.154513 1.36225 0.107338 1.40578 0.0725441 1.45882C0.0327412 1.50737 0.00525999 1.56502 -0.00750959 1.62677C-0.0202792 1.68852 -0.0179504 1.75249 -0.000725927 1.81312L5.20144 16.2079C5.32412 16.5101 5.5328 16.7686 5.80097 16.9506C6.06914 17.1325 6.3847 17.2297 6.70755 17.2297C7.0304 17.2297 7.34596 17.1325 7.61413 16.9506C7.8823 16.7686 8.09099 16.5101 8.21366 16.2079L12.04 5.109L15.8663 16.2079C15.9806 16.5172 16.1868 16.7831 16.4565 16.969C16.7262 17.1549 17.0462 17.2517 17.3724 17.2461C17.6977 17.2523 18.0169 17.1567 18.2865 16.9724C18.5561 16.788 18.7629 16.5239 18.8785 16.2161L24.0888 1.82136C24.1093 1.7614 24.1156 1.6974 24.107 1.63454C24.0985 1.57168 24.0755 1.51173 24.0398 1.45957C24.0041 1.4074 23.9568 1.36448 23.9017 1.33429C23.8465 1.30409 23.7851 1.28748 23.7225 1.28578H22.0943C21.951 1.28622 21.8114 1.33163 21.6948 1.41575C21.5781 1.49988 21.4901 1.61857 21.443 1.75545L17.3724 13.4146L13.5461 2.10975C13.4365 1.8068 13.2366 1.54577 12.9741 1.36274C12.7116 1.17972 12.3994 1.08372 12.0807 1.08803Z"
            fill="white"></path>
        <path
            d="M30.888 17.2384C28.5979 17.254 26.3685 16.4941 24.5542 15.0796C24.5163 15.0503 24.4851 15.013 24.4626 14.9703C24.4401 14.9277 24.427 14.8807 24.424 14.8324C24.4188 14.7839 24.4233 14.7348 24.4373 14.6881C24.4513 14.6413 24.4744 14.598 24.5054 14.5605L25.5312 13.3822C25.5882 13.3137 25.6693 13.2703 25.7574 13.2611C25.8455 13.2519 25.9336 13.2776 26.0034 13.3328C27.3905 14.4976 29.1345 15.1384 30.9369 15.1455C32.8175 15.1455 34.0875 14.2474 34.0875 12.9126V12.8714C34.0875 11.5036 33.1675 10.8856 30.1797 10.21C26.7035 9.38599 24.8229 8.42195 24.8229 5.60397V5.55453C24.8229 2.93431 27.0617 1.09685 30.2693 1.09685C32.2092 1.04591 34.1145 1.62327 35.7076 2.74479C35.7473 2.76992 35.781 2.80364 35.8064 2.84353C35.8317 2.88342 35.848 2.92849 35.8541 2.9755C35.8619 3.02162 35.8601 3.06887 35.8489 3.11426C35.8377 3.15965 35.8173 3.20219 35.789 3.23918L34.8934 4.49161C34.8425 4.56427 34.7658 4.61425 34.6794 4.63113C34.593 4.64801 34.5034 4.6305 34.4294 4.58225C33.2031 3.70588 31.7458 3.22091 30.2449 3.18974C28.5352 3.18974 27.3385 4.06315 27.3385 5.30734C27.3385 6.83992 28.5515 7.36727 31.4498 8.03468C35.154 8.94929 36.6356 10.2182 36.6356 12.5912V12.6407C36.6356 15.4339 34.3561 17.2384 30.888 17.2384Z"
            fill="white"></path>
        <path
            d="M46.404 12.0293H43.9616C43.6917 12.0531 43.4404 12.1784 43.2573 12.3805C43.0742 12.5826 42.9727 12.8468 42.9727 13.1211C42.9727 13.3953 43.0742 13.6595 43.2573 13.8616C43.4404 14.0638 43.6917 14.1891 43.9616 14.2128H46.404C46.6739 14.1891 46.9252 14.0638 47.1083 13.8616C47.2914 13.6595 47.3929 13.3953 47.3929 13.1211C47.3929 12.8468 47.2914 12.5826 47.1083 12.3805C46.9252 12.1784 46.6739 12.0531 46.404 12.0293Z"
            fill="white"></path>
        <path
            d="M45.2388 1.0959C44.8754 1.09161 44.5186 1.19349 44.211 1.38933C43.9034 1.58517 43.6582 1.86666 43.5047 2.20002L37.0977 16.4794C37.0724 16.5401 37.0622 16.606 37.0679 16.6715C37.0737 16.7371 37.0951 16.8002 37.1304 16.8554C37.1657 16.9107 37.2138 16.9563 37.2705 16.9884C37.3273 17.0206 37.3909 17.0382 37.4559 17.0397H39.019C39.1535 17.0388 39.285 16.9987 39.3976 16.9242C39.5102 16.8497 39.5992 16.7439 39.654 16.6195L45.1899 3.8974L50.734 16.6195C50.7879 16.7445 50.8768 16.8509 50.9896 16.9255C51.1024 17.0002 51.2343 17.0399 51.369 17.0397H52.9973C53.0635 17.0406 53.1289 17.0245 53.1873 16.9928C53.2457 16.961 53.2952 16.9148 53.331 16.8584C53.3631 16.8006 53.38 16.7353 53.38 16.6689C53.38 16.6026 53.3631 16.5373 53.331 16.4794L46.9728 2.20002C46.8202 1.86602 46.5752 1.58396 46.2674 1.388C45.9596 1.19204 45.6023 1.09058 45.2388 1.0959Z"
            fill="white"></path>
    </g>
    <defs>
        <clipPath id="clip0_3507_9203">
            <rect width="150" height="22" fill="white"></rect>
        </clipPath>
    </defs>
</svg>